<?xml version="1.0" encoding="utf-8"?>
<!-- Generator: Adobe Illustrator 24.0.3, SVG Export Plug-In . SVG Version: 6.00 Build 0)  -->
<svg version="1.1" id="Layer_1" xmlns="http://www.w3.org/2000/svg" xmlns:xlink="http://www.w3.org/1999/xlink" x="0px" y="0px"
	 viewBox="0 0 730.7 145.6" style="enable-background:new 0 0 730.7 145.6;" xml:space="preserve">
<style type="text/css">
	.st0{fill-rule:evenodd;clip-rule:evenodd;fill:#FFFFFF;}
	.st1{fill:#FFFFFF;}
</style>
<g>
	<g>
		<g>
			<path class="st0" d="M207,38.7c-0.1,0-0.2,0-0.3,0c-13.9,0.1-22.4,10.7-22.4,23.8c0,12.7,7.8,23.3,21.9,23.3h0.1
				c0.1,0,0.3,0,0.4,0c13.8-0.1,22.4-9.5,22.4-24C229,49.6,221.6,38.7,207,38.7L207,38.7z M206.8,76.1l-0.1,0l0,0
				c-5.9,0-9.6-5.7-9.5-13.8c0-7.9,3.6-13.9,9.5-13.9l0,0c5.9,0,9.4,5.9,9.4,13.8C216.1,70.5,212.7,76.1,206.8,76.1L206.8,76.1z
				 M255.6,38.7c-0.1,0-0.2,0-0.3,0C241.5,38.9,233,49.4,233,62.5c0,12.7,7.8,23.3,21.9,23.3h0.1c0.1,0,0.3,0,0.4,0
				c13.8-0.1,22.4-9.5,22.4-24C277.8,49.6,270.3,38.7,255.6,38.7L255.6,38.7z M255.5,76.1l-0.2,0c-5.9,0-9.5-5.6-9.4-13.8
				c0-7.9,3.6-13.9,9.4-13.9c6,0,9.5,5.9,9.5,13.8C264.8,70.5,261.4,76.1,255.5,76.1L255.5,76.1z M308.5,60.5v-0.1
				c5.3-2,7.4-5.8,7.4-9.5c0-4.5-2.6-7.7-6.2-9.4c-3-1.5-6.2-2-11.1-2.2c-0.9,0-1.8,0-2.8,0c-5.6,0-11.6,0.5-14.4,1v44.7
				c2.4,0.4,6.5,0.8,12,0.8c1.8,0,3.5,0,5.1-0.1c6.7-0.5,10.9-1.8,13.6-3.9c3.1-2.3,5.1-5.7,5.1-10C317.4,66.1,314,62,308.5,60.5
				L308.5,60.5z M293.5,48.2c0.8-0.1,2-0.3,4-0.3c0.4,0,0.8,0,1.1,0.1c3.4,0.3,5.1,1.9,5.1,4.3c0,2.4-1.7,4-5.1,4.6
				c-0.8,0.1-1.7,0.2-2.7,0.2h-2.4V48.2L293.5,48.2z M298.6,76.6c-0.5,0-1,0.1-1.6,0.1c-1.6,0-2.6,0-3.5-0.1V65.7h2.9
				c0.8,0,1.5,0,2.2,0.1c3.5,0.4,5.9,2,5.9,5.2C304.6,74.5,301.9,76.2,298.6,76.6L298.6,76.6z M128.4,39.5c0,4.1,0,45.6,0,45.6h12.2
				c0,0,0-37.5,0-38.1C140.7,41.3,137.5,39.5,128.4,39.5L128.4,39.5z M110.6,57.5c-5.8-2.2-8.2-3.1-8.2-5.3c0-2,2-3.4,5.8-3.4
				c4.5,0,9,1.7,9.9,2.2c1.7-4.7,2.7-12.1-9.8-12.1C96.8,38.8,90,45.1,90,53.1c0,6.7,5.1,10.9,12.8,13.7c5.1,1.7,7.2,3,7.2,5.2
				c0,2.3-2.1,3.7-6.2,3.7c-4.6,0-9.1-1.4-11.9-2.8L89.7,83c2.5,1.4,7.9,2.8,13.4,2.8c13.3,0,19.4-6.7,19.4-14.6
				C122.5,64.9,118.8,60.5,110.6,57.5L110.6,57.5z M172.6,75.6c-8.4,0-13.3-5.1-13.3-13.4c0-9.3,6.1-13.4,13.1-13.4
				c3.7,0,7.4,1.1,8.5,1.6c2.1-4.9,1.6-11.6-9-11.6c-13.6,0-25.4,8.2-25.4,24.2c0,12.1,7.5,22.8,24.5,22.8c5.4,0,9.8-1,11.4-1.9
				l-1.7-9.5C178.9,75.1,175.5,75.6,172.6,75.6z"/>
			<path class="st0" d="M501.9,109.8c-0.3,0.2-0.8,0.3-1.6,0.5c-0.7,0.1-1.5,0.2-2.5,0.2c-1.2,0-2.3-0.2-3.3-0.5
				c-1-0.4-1.8-0.9-2.5-1.6c-0.7-0.7-1.2-1.5-1.6-2.4c-0.3-1-0.5-2-0.5-3.2c0-1.3,0.2-2.4,0.6-3.3c0.4-1,1-1.9,1.8-2.6
				c0.7-0.7,1.6-1.3,2.6-1.6c1-0.4,2.1-0.6,3.3-0.6c0.9,0,1.7,0.1,2.4,0.2c0.6,0.2,1.1,0.3,1.4,0.5l-0.6,2.2
				c-0.4-0.2-0.8-0.3-1.3-0.4c-0.5-0.1-1.1-0.2-1.7-0.2c-0.8,0-1.5,0.1-2.2,0.3c-0.6,0.3-1.2,0.6-1.7,1.1c-0.5,0.5-0.9,1.1-1.1,1.8
				c-0.3,0.7-0.4,1.5-0.4,2.4c0,1.7,0.5,3.1,1.4,4c0.9,1,2.3,1.5,4,1.5c0.6,0,1.2,0,1.7-0.2c0.6-0.1,1-0.2,1.4-0.4L501.9,109.8
				L501.9,109.8z M509.2,101c-0.5,0-1,0.1-1.3,0.3c-0.3,0.2-0.6,0.5-0.9,0.9c-0.2,0.4-0.4,0.8-0.5,1.2c-0.1,0.5-0.2,0.9-0.2,1.4
				c0,0.5,0.1,1,0.2,1.5c0.2,0.5,0.4,0.8,0.6,1.2c0.2,0.4,0.5,0.6,0.9,0.8c0.4,0.2,0.7,0.3,1.1,0.3c0.4,0,0.8-0.1,1.1-0.3
				c0.4-0.2,0.6-0.5,0.9-0.8c0.3-0.3,0.5-0.8,0.6-1.2c0.2-0.5,0.2-1,0.2-1.5c0-0.5,0-0.9-0.1-1.3c-0.1-0.4-0.2-0.8-0.5-1.2
				c-0.2-0.4-0.5-0.6-0.8-0.9C510.1,101.1,509.7,101,509.2,101L509.2,101z M509.3,98.9c0.8,0,1.6,0.1,2.3,0.4
				c0.7,0.3,1.2,0.7,1.7,1.2c0.5,0.5,0.9,1.1,1.1,1.8c0.3,0.7,0.4,1.5,0.4,2.3c0,1-0.1,1.9-0.5,2.6c-0.3,0.7-0.8,1.4-1.3,1.8
				c-0.6,0.5-1.2,0.8-1.9,1.1c-0.7,0.2-1.4,0.3-2.1,0.3c-0.8,0-1.5-0.1-2.2-0.4c-0.7-0.3-1.3-0.6-1.8-1.1c-0.5-0.5-0.9-1.1-1.2-1.8
				c-0.3-0.7-0.5-1.5-0.5-2.4c0-0.9,0.2-1.8,0.4-2.5c0.3-0.7,0.7-1.3,1.2-1.8c0.5-0.5,1.1-0.9,1.8-1.2
				C507.7,99.1,508.4,98.9,509.3,98.9L509.3,98.9z M522.2,101c-0.5,0-0.9,0.1-1.3,0.3c-0.3,0.2-0.6,0.5-0.8,0.9
				c-0.2,0.4-0.4,0.8-0.5,1.2c-0.1,0.5-0.2,0.9-0.2,1.4c0,0.5,0,1,0.2,1.5c0.1,0.5,0.3,0.8,0.6,1.2c0.2,0.4,0.5,0.6,0.9,0.8
				c0.3,0.2,0.7,0.3,1.2,0.3c0.4,0,0.8-0.1,1.1-0.3c0.3-0.2,0.6-0.5,0.9-0.8c0.2-0.3,0.4-0.8,0.6-1.2c0.1-0.5,0.2-1,0.2-1.5
				c0-0.5,0-0.9-0.2-1.3c-0.1-0.4-0.3-0.8-0.5-1.2c-0.2-0.4-0.5-0.6-0.8-0.9C523.1,101.1,522.7,101,522.2,101L522.2,101z
				 M522.3,98.9c0.8,0,1.6,0.1,2.3,0.4c0.7,0.3,1.3,0.7,1.8,1.2c0.5,0.5,0.9,1.1,1.1,1.8c0.3,0.7,0.4,1.5,0.4,2.3
				c0,1-0.2,1.9-0.5,2.6c-0.3,0.7-0.8,1.4-1.3,1.8c-0.5,0.5-1.1,0.8-1.8,1.1c-0.7,0.2-1.4,0.3-2.1,0.3c-0.8,0-1.5-0.1-2.2-0.4
				c-0.7-0.3-1.3-0.6-1.8-1.1c-0.5-0.5-0.9-1.1-1.2-1.8c-0.3-0.7-0.4-1.5-0.4-2.4c0-0.9,0.1-1.8,0.4-2.5c0.3-0.7,0.7-1.3,1.2-1.8
				c0.5-0.5,1.2-0.9,1.9-1.2C520.7,99.1,521.5,98.9,522.3,98.9L522.3,98.9z M533.1,105.6c0,0.3,0,0.5,0.1,0.8
				c0.2,0.6,0.5,1.1,0.9,1.4c0.5,0.4,1,0.6,1.6,0.6c0.9,0,1.6-0.3,2.1-1c0.5-0.7,0.7-1.6,0.7-2.6c0-0.5,0-1-0.2-1.4
				c-0.1-0.4-0.3-0.8-0.5-1.1c-0.3-0.3-0.5-0.6-0.9-0.8c-0.4-0.2-0.8-0.3-1.2-0.3c-0.6,0-1.1,0.2-1.6,0.6c-0.5,0.4-0.8,0.9-1,1.5
				c0,0.1-0.1,0.2-0.1,0.4c0,0.1,0,0.2,0,0.3V105.6L533.1,105.6z M530.2,102.9c0-0.7,0-1.4,0-2c0-0.6,0-1.2,0-1.7h2.5l0.2,1.7h0
				c0.4-0.6,0.9-1.1,1.6-1.4c0.6-0.3,1.4-0.5,2.3-0.5c0.6,0,1.3,0.1,1.8,0.4c0.6,0.3,1.1,0.6,1.5,1.1c0.4,0.5,0.8,1.1,1,1.8
				c0.3,0.7,0.4,1.5,0.4,2.4c0,1-0.1,1.9-0.5,2.6c-0.3,0.8-0.6,1.4-1.2,1.9c-0.5,0.5-1,0.8-1.6,1.1c-0.6,0.2-1.2,0.3-1.9,0.3
				c-0.7,0-1.4-0.1-1.9-0.4c-0.6-0.3-1-0.6-1.3-1.1h-0.1v5.7h-2.8V102.9L530.2,102.9z M550.7,103.6c0-0.3,0-0.6-0.1-0.9
				c-0.1-0.3-0.2-0.6-0.3-0.9c-0.2-0.3-0.4-0.5-0.7-0.7c-0.3-0.2-0.7-0.3-1.2-0.3c-0.4,0-0.8,0.1-1.1,0.3c-0.4,0.1-0.6,0.4-0.8,0.6
				c-0.2,0.3-0.4,0.5-0.5,0.9c-0.1,0.3-0.2,0.6-0.2,0.9H550.7L550.7,103.6z M545.7,105.5c0,0.5,0.1,0.9,0.3,1.3
				c0.2,0.4,0.5,0.6,0.8,0.9c0.3,0.2,0.7,0.4,1.1,0.5c0.4,0.1,0.9,0.1,1.3,0.1c0.6,0,1.2,0,1.7-0.1c0.5-0.1,0.9-0.2,1.4-0.4l0.4,1.9
				c-0.5,0.2-1.1,0.4-1.7,0.5c-0.6,0.1-1.4,0.2-2.2,0.2c-0.9,0-1.7-0.2-2.4-0.4c-0.7-0.3-1.3-0.7-1.8-1.1c-0.5-0.5-0.9-1.1-1.1-1.8
				c-0.3-0.7-0.4-1.5-0.4-2.3c0-0.8,0.2-1.5,0.4-2.3c0.2-0.7,0.6-1.3,1-1.9c0.5-0.6,1-1,1.7-1.3c0.7-0.3,1.5-0.5,2.4-0.5
				c0.9,0,1.6,0.2,2.3,0.5c0.6,0.3,1.1,0.8,1.5,1.3c0.4,0.5,0.6,1.1,0.8,1.7c0.2,0.6,0.3,1.3,0.3,1.9c0,0.3,0,0.5,0,0.7
				c0,0.2,0,0.4-0.1,0.5H545.7L545.7,105.5z M555.7,102.7c0-0.8-0.1-1.4-0.1-2c0-0.6,0-1.1-0.1-1.6h2.4l0.1,2.1h0.1
				c0.3-0.8,0.7-1.4,1.3-1.7c0.6-0.4,1.2-0.6,1.8-0.6c0.1,0,0.3,0,0.3,0c0.1,0,0.2,0.1,0.3,0.1v2.6c-0.2,0-0.5-0.1-0.8-0.1
				c-0.7,0-1.3,0.2-1.7,0.6c-0.4,0.4-0.7,0.9-0.8,1.6c0,0.2-0.1,0.5-0.1,0.8v5.8h-2.8V102.7L555.7,102.7z M569.8,104.9
				c-0.5,0-1,0-1.5,0.1c-0.4,0.1-0.9,0.1-1.3,0.3c-0.3,0.2-0.6,0.4-0.9,0.6c-0.2,0.3-0.3,0.6-0.3,1c0,0.5,0.2,1,0.5,1.2
				c0.3,0.2,0.7,0.4,1.1,0.4c0.6,0,1.1-0.2,1.4-0.4c0.4-0.3,0.7-0.7,0.8-1.1c0-0.1,0.1-0.2,0.1-0.3c0-0.1,0-0.2,0-0.3V104.9
				L569.8,104.9z M572.6,107.6c0,0.5,0,1,0.1,1.4c0,0.5,0.1,0.9,0.2,1.2h-2.6L570,109h-0.1c-0.3,0.4-0.8,0.8-1.3,1.1
				c-0.6,0.3-1.2,0.4-2,0.4c-0.6,0-1.1-0.1-1.5-0.3c-0.4-0.2-0.8-0.5-1.1-0.8c-0.3-0.3-0.5-0.7-0.7-1c-0.2-0.4-0.2-0.8-0.2-1.2
				c0-1.4,0.6-2.4,1.7-3.2c1.2-0.7,2.8-1,4.9-1v-0.2c0-0.2,0-0.4-0.1-0.6c-0.1-0.2-0.2-0.4-0.3-0.6c-0.1-0.2-0.4-0.4-0.7-0.5
				c-0.3-0.2-0.7-0.2-1.2-0.2c-0.6,0-1.1,0.1-1.6,0.2c-0.5,0.1-1,0.4-1.4,0.6l-0.5-1.8c0.4-0.3,0.9-0.4,1.7-0.7
				c0.7-0.2,1.5-0.3,2.4-0.3c0.9,0,1.7,0.1,2.2,0.4c0.6,0.2,1.1,0.6,1.4,1c0.3,0.4,0.6,0.9,0.7,1.5c0.1,0.6,0.2,1.2,0.2,1.7V107.6
				L572.6,107.6z M578.8,96.3v2.8h2.7v2.1h-2.7v4.9c0,0.7,0.1,1.2,0.3,1.6c0.2,0.3,0.6,0.5,1.1,0.5c0.3,0,0.5,0,0.6,0
				c0.2,0,0.3,0,0.5-0.1l0.1,2.1c-0.2,0.1-0.5,0.1-0.9,0.2c-0.3,0-0.8,0.1-1.2,0.1c-0.5,0-1-0.1-1.4-0.2c-0.4-0.2-0.8-0.4-1-0.7
				c-0.6-0.6-0.9-1.6-0.9-3.1v-5.2h-1.6v-2.1h1.6v-2.1L578.8,96.3L578.8,96.3z M585.1,94.6c0.5,0,0.9,0.2,1.1,0.4
				c0.3,0.3,0.4,0.6,0.5,1.1c0,0.4-0.2,0.8-0.5,1.1c-0.3,0.3-0.7,0.4-1.2,0.4c-0.5,0-0.8-0.1-1.1-0.4c-0.3-0.3-0.4-0.7-0.4-1.1
				c0-0.5,0.2-0.8,0.5-1.1C584.2,94.7,584.6,94.6,585.1,94.6L585.1,94.6z M583.7,110.3V99.2h2.9v11.1H583.7L583.7,110.3z
				 M591.4,99.2l1.8,5.7c0.2,0.5,0.3,0.9,0.5,1.4c0.1,0.5,0.2,0.9,0.3,1.4h0.1c0.1-0.4,0.2-0.9,0.3-1.3c0.2-0.5,0.3-0.9,0.4-1.4
				l1.8-5.7h3l-4.3,11.1h-2.8l-4.2-11.1H591.4L591.4,99.2z M607.3,104.9c-0.5,0-1,0-1.5,0.1c-0.5,0.1-0.9,0.1-1.3,0.3
				c-0.3,0.2-0.7,0.4-0.9,0.6c-0.2,0.3-0.3,0.6-0.3,1c0,0.5,0.2,1,0.5,1.2c0.3,0.2,0.7,0.4,1.1,0.4c0.6,0,1.1-0.2,1.4-0.4
				c0.4-0.3,0.7-0.7,0.8-1.1c0-0.1,0.1-0.2,0.1-0.3c0-0.1,0-0.2,0-0.3V104.9L607.3,104.9z M610,107.6c0,0.5,0,1,0,1.4
				c0,0.5,0.1,0.9,0.2,1.2h-2.6l-0.2-1.3h-0.1c-0.3,0.4-0.8,0.8-1.3,1.1c-0.6,0.3-1.3,0.4-2,0.4c-0.6,0-1.1-0.1-1.5-0.3
				c-0.4-0.2-0.8-0.5-1.1-0.8c-0.3-0.3-0.5-0.7-0.7-1c-0.2-0.4-0.2-0.8-0.2-1.2c0-1.4,0.6-2.4,1.8-3.2c1.2-0.7,2.8-1,4.9-1v-0.2
				c0-0.2,0-0.4-0.1-0.6c0-0.2-0.1-0.4-0.3-0.6c-0.2-0.2-0.4-0.4-0.7-0.5c-0.3-0.2-0.7-0.2-1.2-0.2c-0.5,0-1.1,0.1-1.6,0.2
				c-0.5,0.1-1,0.4-1.4,0.6l-0.5-1.8c0.4-0.3,0.9-0.4,1.7-0.7c0.7-0.2,1.5-0.3,2.4-0.3c0.9,0,1.7,0.1,2.3,0.4c0.6,0.2,1.1,0.6,1.4,1
				c0.4,0.4,0.6,0.9,0.8,1.5c0.1,0.6,0.2,1.2,0.2,1.7V107.6L610,107.6z M625.3,103.8c0-0.1,0-0.2,0-0.4c0-0.1,0-0.2,0-0.3
				c-0.1-0.5-0.4-1-0.8-1.4c-0.5-0.4-1-0.6-1.6-0.6c-0.5,0-0.8,0.1-1.2,0.3c-0.4,0.2-0.7,0.4-0.9,0.8c-0.2,0.4-0.4,0.7-0.5,1.1
				c-0.1,0.5-0.2,0.9-0.2,1.5c0,1,0.2,1.9,0.7,2.5c0.5,0.7,1.2,1,2.1,1c0.6,0,1.1-0.2,1.6-0.5c0.4-0.4,0.7-0.9,0.9-1.5
				c0.1-0.2,0.1-0.5,0.1-0.8V103.8L625.3,103.8z M628.2,94.1v13c0,0.6,0,1.1,0,1.7c0,0.5,0,1,0.1,1.4h-2.5l-0.1-1.8h-0.1
				c-0.3,0.6-0.8,1.1-1.4,1.5c-0.6,0.4-1.4,0.5-2.2,0.5c-0.7,0-1.3-0.1-1.9-0.4c-0.6-0.3-1.1-0.7-1.5-1.2c-0.5-0.5-0.8-1.1-1-1.7
				c-0.3-0.7-0.4-1.5-0.4-2.3c0-1,0.2-1.8,0.4-2.5c0.3-0.7,0.6-1.3,1.1-1.9c0.5-0.5,1-0.9,1.6-1.1c0.6-0.3,1.2-0.4,1.9-0.4
				c0.8,0,1.5,0.1,2,0.4c0.5,0.3,0.9,0.6,1.2,1h0v-6.3H628.2L628.2,94.1z M638.2,103.6c0-0.3,0-0.6-0.1-0.9
				c-0.1-0.3-0.2-0.6-0.4-0.9c-0.1-0.3-0.4-0.5-0.7-0.7c-0.3-0.2-0.7-0.3-1.1-0.3c-0.4,0-0.8,0.1-1.1,0.3c-0.3,0.1-0.6,0.4-0.8,0.6
				c-0.2,0.3-0.4,0.5-0.5,0.9c-0.1,0.3-0.2,0.6-0.2,0.9H638.2L638.2,103.6z M633.2,105.5c0,0.5,0.2,0.9,0.3,1.3
				c0.2,0.4,0.4,0.6,0.8,0.9c0.3,0.2,0.6,0.4,1.1,0.5c0.4,0.1,0.8,0.1,1.3,0.1c0.7,0,1.3,0,1.7-0.1c0.5-0.1,1-0.2,1.4-0.4l0.4,1.9
				c-0.5,0.2-1.1,0.4-1.7,0.5c-0.6,0.1-1.4,0.2-2.2,0.2c-0.9,0-1.7-0.2-2.4-0.4c-0.7-0.3-1.3-0.7-1.8-1.1c-0.5-0.5-0.9-1.1-1.1-1.8
				c-0.3-0.7-0.4-1.5-0.4-2.3c0-0.8,0.1-1.5,0.3-2.3c0.3-0.7,0.6-1.3,1.1-1.9c0.5-0.6,1-1,1.7-1.3c0.7-0.3,1.5-0.5,2.4-0.5
				c0.9,0,1.7,0.2,2.3,0.5c0.6,0.3,1.2,0.8,1.5,1.3c0.4,0.5,0.7,1.1,0.8,1.7c0.2,0.6,0.2,1.3,0.2,1.9c0,0.3,0,0.5,0,0.7
				c0,0.2,0,0.4-0.1,0.5H633.2L633.2,105.5z M659.2,109.8c-0.3,0.2-0.8,0.3-1.6,0.5c-0.7,0.1-1.5,0.2-2.5,0.2
				c-1.2,0-2.3-0.2-3.3-0.5c-1-0.4-1.8-0.9-2.5-1.6c-0.7-0.7-1.2-1.5-1.6-2.4c-0.3-1-0.5-2-0.5-3.2c0-1.3,0.2-2.4,0.6-3.3
				c0.5-1,1-1.9,1.8-2.6c0.7-0.7,1.6-1.3,2.6-1.6c1-0.4,2.1-0.6,3.3-0.6c1,0,1.7,0.1,2.4,0.2c0.6,0.2,1.1,0.3,1.4,0.5l-0.6,2.2
				c-0.4-0.2-0.8-0.3-1.3-0.4c-0.5-0.1-1.1-0.2-1.8-0.2c-0.8,0-1.5,0.1-2.2,0.3c-0.6,0.3-1.2,0.6-1.7,1.1c-0.5,0.5-0.9,1.1-1.1,1.8
				c-0.3,0.7-0.4,1.5-0.4,2.4c0,1.7,0.5,3.1,1.4,4c0.9,1,2.3,1.5,4,1.5c0.6,0,1.1,0,1.7-0.2c0.6-0.1,1-0.2,1.4-0.4L659.2,109.8
				L659.2,109.8z M661.5,102.7c0-0.8,0-1.4,0-2c0-0.6,0-1.1-0.1-1.6h2.4l0.1,2.1h0.1c0.3-0.8,0.7-1.4,1.3-1.7
				c0.6-0.4,1.2-0.6,1.8-0.6c0.2,0,0.3,0,0.4,0c0.1,0,0.2,0.1,0.3,0.1v2.6c-0.2,0-0.5-0.1-0.8-0.1c-0.7,0-1.3,0.2-1.7,0.6
				c-0.4,0.4-0.7,0.9-0.8,1.6c0,0.2-0.1,0.5-0.1,0.8v5.8h-2.8V102.7L661.5,102.7z M677.9,94.4l-2.8,3.4h-2l2-3.4H677.9L677.9,94.4z
				 M676.7,103.6c0-0.3-0.1-0.6-0.1-0.9c-0.1-0.3-0.2-0.6-0.3-0.9c-0.2-0.3-0.4-0.5-0.7-0.7c-0.3-0.2-0.7-0.3-1.2-0.3
				c-0.4,0-0.8,0.1-1.1,0.3c-0.4,0.1-0.6,0.4-0.8,0.6c-0.2,0.3-0.4,0.5-0.5,0.9c-0.1,0.3-0.1,0.6-0.2,0.9H676.7L676.7,103.6z
				 M671.7,105.5c0,0.5,0.1,0.9,0.3,1.3c0.2,0.4,0.4,0.6,0.8,0.9c0.3,0.2,0.7,0.4,1.1,0.5c0.4,0.1,0.8,0.1,1.3,0.1
				c0.7,0,1.2,0,1.7-0.1c0.5-0.1,0.9-0.2,1.4-0.4l0.4,1.9c-0.5,0.2-1.1,0.4-1.7,0.5c-0.7,0.1-1.4,0.2-2.2,0.2
				c-0.9,0-1.7-0.2-2.4-0.4c-0.7-0.3-1.3-0.7-1.8-1.1c-0.5-0.5-0.9-1.1-1.1-1.8c-0.3-0.7-0.4-1.5-0.4-2.3c0-0.8,0.1-1.5,0.4-2.3
				c0.2-0.7,0.6-1.3,1-1.9c0.5-0.6,1.1-1,1.7-1.3c0.7-0.3,1.5-0.5,2.4-0.5c0.9,0,1.6,0.2,2.3,0.5c0.6,0.3,1.1,0.8,1.5,1.3
				c0.4,0.5,0.6,1.1,0.8,1.7c0.2,0.6,0.3,1.3,0.3,1.9c0,0.3,0,0.5,0,0.7c0,0.2,0,0.4-0.1,0.5H671.7L671.7,105.5z M689.1,103.8
				c0-0.1,0-0.2,0-0.4c0-0.1,0-0.2-0.1-0.3c-0.1-0.5-0.4-1-0.8-1.4c-0.5-0.4-1-0.6-1.6-0.6c-0.5,0-0.9,0.1-1.2,0.3
				c-0.3,0.2-0.6,0.4-0.9,0.8c-0.2,0.4-0.4,0.7-0.6,1.1c-0.1,0.5-0.1,0.9-0.1,1.5c0,1,0.2,1.9,0.7,2.5c0.5,0.7,1.2,1,2.1,1
				c0.6,0,1.1-0.2,1.5-0.5c0.5-0.4,0.8-0.9,0.9-1.5c0.1-0.2,0.1-0.5,0.1-0.8V103.8L689.1,103.8z M692,94.1v13c0,0.6,0,1.1,0,1.7
				c0,0.5,0,1,0.1,1.4h-2.5l-0.2-1.8h0c-0.3,0.6-0.8,1.1-1.4,1.5c-0.6,0.4-1.4,0.5-2.2,0.5c-0.7,0-1.3-0.1-1.9-0.4
				c-0.6-0.3-1.1-0.7-1.5-1.2c-0.5-0.5-0.8-1.1-1-1.7c-0.3-0.7-0.4-1.5-0.4-2.3c0-1,0.1-1.8,0.4-2.5c0.3-0.7,0.6-1.3,1.1-1.9
				c0.5-0.5,1-0.9,1.6-1.1c0.6-0.3,1.3-0.4,1.9-0.4c0.8,0,1.4,0.1,2,0.4c0.5,0.3,0.9,0.6,1.2,1h0v-6.3H692L692,94.1z M696.5,94.6
				c0.5,0,0.9,0.2,1.1,0.4c0.3,0.3,0.4,0.6,0.5,1.1c0,0.4-0.1,0.8-0.5,1.1c-0.3,0.3-0.7,0.4-1.2,0.4c-0.4,0-0.8-0.1-1.1-0.4
				c-0.3-0.3-0.5-0.7-0.5-1.1c0-0.5,0.2-0.8,0.5-1.1C695.6,94.7,696,94.6,696.5,94.6L696.5,94.6z M695,110.3V99.2h2.8v11.1H695
				L695,110.3z M704.2,96.3v2.8h2.7v2.1h-2.7v4.9c0,0.7,0.1,1.2,0.3,1.6c0.2,0.3,0.6,0.5,1.1,0.5c0.3,0,0.5,0,0.6,0
				c0.1,0,0.3,0,0.5-0.1l0,2.1c-0.2,0.1-0.5,0.1-0.8,0.2c-0.3,0-0.7,0.1-1.2,0.1c-0.5,0-1-0.1-1.4-0.2c-0.4-0.2-0.7-0.4-1-0.7
				c-0.6-0.6-0.9-1.6-0.9-3.1v-5.2h-1.6v-2.1h1.6v-2.1L704.2,96.3L704.2,96.3z M714.1,101c-0.5,0-1,0.1-1.3,0.3
				c-0.3,0.2-0.6,0.5-0.9,0.9c-0.2,0.4-0.4,0.8-0.5,1.2c-0.1,0.5-0.1,0.9-0.1,1.4c0,0.5,0.1,1,0.2,1.5c0.2,0.5,0.3,0.8,0.6,1.2
				c0.3,0.4,0.5,0.6,0.9,0.8c0.4,0.2,0.7,0.3,1.2,0.3c0.4,0,0.7-0.1,1.1-0.3c0.3-0.2,0.6-0.5,0.9-0.8c0.2-0.3,0.4-0.8,0.5-1.2
				c0.2-0.5,0.2-1,0.2-1.5c0-0.5-0.1-0.9-0.2-1.3c-0.1-0.4-0.3-0.8-0.5-1.2c-0.2-0.4-0.5-0.6-0.8-0.9C715,101.1,714.6,101,714.1,101
				L714.1,101z M714.1,98.9c0.8,0,1.6,0.1,2.3,0.4c0.7,0.3,1.3,0.7,1.8,1.2c0.5,0.5,0.9,1.1,1.1,1.8c0.3,0.7,0.4,1.5,0.4,2.3
				c0,1-0.2,1.9-0.5,2.6c-0.3,0.7-0.7,1.4-1.3,1.8c-0.5,0.5-1.2,0.8-1.8,1.1c-0.7,0.2-1.4,0.3-2.1,0.3c-0.8,0-1.5-0.1-2.2-0.4
				c-0.7-0.3-1.3-0.6-1.8-1.1c-0.5-0.5-0.9-1.1-1.2-1.8c-0.3-0.7-0.5-1.5-0.5-2.4c0-0.9,0.1-1.8,0.5-2.5c0.3-0.7,0.7-1.3,1.2-1.8
				c0.5-0.5,1.1-0.9,1.8-1.2C712.5,99.1,713.3,98.9,714.1,98.9z"/>
			<g>
				<path class="st0" d="M387.1,58.1c-1.5,1.2-3.5,1.7-6.1,1.7h-4V47.3c0.4-0.1,0.9-0.2,1.6-0.2c0.8-0.1,1.8-0.1,3-0.1
					c2.4,0,4.3,0.5,5.6,1.6c1.3,1.1,2,2.6,2,4.7C389.3,55.4,388.6,56.9,387.1,58.1L387.1,58.1z M399.6,80.1
					c-0.2-1.2-0.5-2.4-0.7-3.8c-0.3-1.3-0.6-2.7-0.9-4c-0.6-2.1-1.4-3.9-2.5-5.4c-1-1.4-2.4-2.5-3.9-3.1v-0.2c1-0.3,2-0.8,2.9-1.5
					c0.9-0.6,1.8-1.4,2.6-2.4c0.8-1,1.4-2,1.9-3.2c0.5-1.2,0.7-2.6,0.7-4c0-4.2-1.4-7.4-4.3-9.6c-1.6-1.3-3.7-2.2-6.1-2.8
					c-2.4-0.5-5.4-0.8-8.8-0.8c-2.8,0-5.4,0.1-7.8,0.3c-2.4,0.2-4.4,0.4-6,0.7v45H377V67.3h3.1c1.1,0,2,0.1,2.9,0.3
					c0.8,0.2,1.5,0.7,2.2,1.2c0.6,0.6,1.1,1.3,1.6,2.2c0.5,0.9,0.8,2.1,1.2,3.5c0.6,2.9,1.1,5.2,1.3,6.9c0.3,1.8,0.6,3.1,1,3.7h10.6
					c-0.2-0.4-0.5-1.1-0.6-2C400,82.3,399.8,81.3,399.6,80.1z"/>
				<path class="st0" d="M606.3,58.1c-1.5,1.2-3.5,1.7-6.1,1.7h-4V47.3c0.4-0.1,0.9-0.2,1.6-0.2c0.8-0.1,1.8-0.1,3-0.1
					c2.4,0,4.3,0.5,5.6,1.6c1.3,1.1,2,2.6,2,4.7C608.5,55.4,607.8,56.9,606.3,58.1L606.3,58.1z M618.8,80.1
					c-0.2-1.2-0.5-2.4-0.7-3.8c-0.3-1.3-0.6-2.7-0.9-4c-0.6-2.1-1.4-3.9-2.5-5.4c-1-1.4-2.4-2.5-3.9-3.1v-0.2c1-0.3,2-0.8,2.9-1.5
					c1-0.6,1.8-1.4,2.5-2.4c0.8-1,1.4-2,1.9-3.2c0.5-1.2,0.7-2.6,0.7-4c0-4.2-1.4-7.4-4.3-9.6c-1.6-1.3-3.7-2.2-6.1-2.8
					c-2.4-0.5-5.4-0.8-8.8-0.8c-2.8,0-5.4,0.1-7.8,0.3c-2.4,0.2-4.4,0.4-6.1,0.7v45h10.4V67.3h3.1c1.1,0,2,0.1,2.9,0.3
					c0.8,0.2,1.5,0.7,2.2,1.2c0.6,0.6,1.1,1.3,1.6,2.2c0.5,0.9,0.8,2.1,1.2,3.5c0.6,2.9,1.1,5.2,1.3,6.9c0.3,1.8,0.6,3.1,1,3.7H620
					c-0.2-0.4-0.5-1.1-0.6-2C619.2,82.3,619,81.3,618.8,80.1z"/>
				<path class="st0" d="M501.1,46.6c0-1.5-0.2-2.7-0.5-3.7c-0.3-1-0.9-1.7-1.7-2.2c-0.8-0.5-1.9-0.8-3.2-1c-1.3-0.2-3-0.2-4.9-0.2
					v45.7h10.4V46.6z"/>
				<path class="st0" d="M637,46.6c0-1.5-0.2-2.7-0.5-3.7c-0.3-1-0.9-1.7-1.7-2.2c-0.8-0.5-1.9-0.8-3.2-1c-1.3-0.2-3-0.2-4.9-0.2
					v45.7H637V46.6z"/>
				<path class="st0" d="M436.7,76.6h-18.9V65.8h16.9v-8.4h-16.9v-9.5h18c0-3-0.6-5.2-1.9-6.5c-1.3-1.3-3.1-2-5.4-2h-20.9v45.7h29.2
					V76.6z"/>
				<path class="st0" d="M579.9,76.6H561V65.8h16.9v-8.4H561v-9.5h18c0-3-0.6-5.2-1.9-6.5c-1.3-1.3-3.1-2-5.4-2h-20.9v45.7h29.2
					V76.6z"/>
				<path class="st0" d="M453.8,47.4c0.5-0.1,1.1-0.2,1.9-0.3c0.8-0.1,1.7-0.2,2.9-0.2c4.5,0,8.1,1.3,10.7,3.7c2.7,2.5,4,6.1,4,10.8
					c0,2.7-0.4,5.1-1.1,7.1c-0.7,2.1-1.8,3.7-3.2,5c-1.4,1.3-3,2.3-5,2.9c-1.9,0.6-4.1,1-6.5,1c-0.6,0-1.3,0-1.9,0
					c-0.6,0-1.2-0.1-1.7-0.2V47.4L453.8,47.4z M467.4,84.1c3.6-0.9,6.6-2.4,9.1-4.5c2.2-1.9,4-4.4,5.4-7.4c1.4-3,2.1-6.7,2.1-11.1
					c0-4.1-0.7-7.5-2.1-10.3c-1.4-2.8-3.3-5.1-5.7-6.9c-2.2-1.6-4.8-2.8-7.7-3.7c-3-0.8-6.7-1.2-11.1-1.2c-2.6,0-5.1,0.1-7.5,0.3
					c-2.4,0.1-4.5,0.4-6.4,0.7v44.8c1.3,0.2,2.9,0.3,4.8,0.4c1.9,0.2,4.2,0.2,7,0.2C459.7,85.5,463.8,85,467.4,84.1z"/>
				<path class="st0" d="M349.6,38.7h-0.3c-3.4,0-6.6,0.6-9.6,1.6c-3.1,1.1-5.7,2.6-8,4.7c-2.2,2.1-4,4.6-5.4,7.6
					c-1.3,3-2,6.4-2,10.3c0,3.2,0.5,6.3,1.5,9.1c1,2.8,2.6,5.2,4.6,7.2c2,2,4.5,3.7,7.5,4.8c3.1,1.2,6.5,1.8,10.5,1.8
					c2.8,0,5.2-0.2,7.2-0.6c2.1-0.5,3.5-0.9,4.4-1.3l-1.5-8.1c-1,0.5-2.4,0.8-4,1.1c-1.6,0.3-3.2,0.4-4.8,0.4c-4.6,0-8.2-1.3-10.8-4
					c-2.6-2.7-3.8-6.3-3.8-10.9c0-2.5,0.4-4.7,1.1-6.6c0.8-1.9,1.8-3.5,3.1-4.7c1.3-1.2,2.9-2.2,4.6-2.8c1.8-0.6,3.7-0.9,5.7-0.9
					c1.9,0,3.6,0.1,5,0.5c1.4,0.3,2.7,0.7,3.7,1.2c0.5-1.5,0.8-2.9,0.7-4c-0.1-1.1-0.3-2-0.8-2.8c-0.5-0.7-1.1-1.3-1.9-1.8
					c-0.7-0.4-1.6-0.8-2.4-1c-0.9-0.2-1.7-0.4-2.5-0.5C351,38.8,350.3,38.8,349.6,38.7L349.6,38.7z"/>
				<path class="st0" d="M533.1,38.7h-0.3c-3.4,0-6.6,0.6-9.7,1.6c-3.1,1.1-5.7,2.6-8,4.7c-2.2,2.1-4,4.6-5.4,7.6
					c-1.3,3-2,6.4-2,10.3c0,3.2,0.5,6.3,1.5,9.1c1,2.8,2.6,5.2,4.6,7.2c2,2,4.5,3.7,7.5,4.8c3.1,1.2,6.5,1.8,10.5,1.8
					c2.8,0,5.2-0.2,7.2-0.6c2.1-0.5,3.5-0.9,4.4-1.3l-1.4-8.1c-1,0.5-2.4,0.8-4,1.1c-1.6,0.3-3.2,0.4-4.8,0.4c-4.6,0-8.2-1.3-10.8-4
					c-2.6-2.7-3.8-6.3-3.8-10.9c0-2.5,0.4-4.7,1.1-6.6c0.8-1.9,1.8-3.5,3.1-4.7c1.3-1.2,2.9-2.2,4.6-2.8c1.8-0.6,3.7-0.9,5.7-0.9
					c1.9,0,3.6,0.1,5,0.5c1.4,0.3,2.7,0.7,3.7,1.2c0.5-1.5,0.8-2.9,0.7-4c-0.1-1.1-0.3-2-0.8-2.8c-0.5-0.7-1.1-1.3-1.9-1.8
					c-0.7-0.4-1.6-0.8-2.4-1c-0.9-0.2-1.7-0.4-2.5-0.5C534.4,38.8,533.7,38.8,533.1,38.7L533.1,38.7z"/>
				<path class="st1" d="M676.6,47.4c-0.9-1.8-2.1-3.3-3.6-4.5c-1.5-1.2-3.5-2.1-5.8-2.7c-2.3-0.6-5.1-0.9-8.3-0.9
					c-3.2,0-5.9,0.1-8.2,0.3c-2.3,0.2-4.2,0.4-5.8,0.7v45h10.3V68.8c1.5,0.3,3.2,0.4,4.8,0.4c1.7,0,3.3-0.2,5-0.6
					c1.6-0.4,3.2-0.9,4.7-1.6c1.5-0.7,2.8-1.6,4-2.7c1.4-1.3,2.5-2.8,3.2-4.7c0.7-1.9,1.1-3.9,1.1-6.2
					C677.9,51.2,677.5,49.2,676.6,47.4z M665.2,59.2c-1.6,1.3-3.7,2-6.5,2c-1.5,0-2.7-0.1-3.4-0.3V47.5c0.8-0.2,2.2-0.3,4.2-0.3
					c2.6,0,4.6,0.6,6,1.8c1.4,1.2,2.1,2.8,2.1,4.9C667.6,56.1,666.8,57.9,665.2,59.2z"/>
				<g>
					<path class="st1" d="M705.9,46.5c-0.5-1.5-1-2.8-1.5-3.7c-0.5-0.9-1.1-1.6-1.9-2.1c-0.8-0.5-1.8-0.8-2.9-0.9
						c-1.1-0.1-2.6-0.2-4.3-0.2h-5.2l-13.9,45.6h10.7l3.3-11.7h13.1l3.5,11.7H718L705.9,46.5z M691.6,65.9l2.7-9.7
						c0.4-1.3,0.7-2.8,1.1-4.4c0.3-1.6,0.7-3.1,1.1-4.4h0.1c0.4,1.4,0.7,2.8,1.1,4.4c0.4,1.6,0.8,3,1.2,4.4l2.9,9.7H691.6z"/>
				</g>
			</g>
			<g>
				<path class="st1" d="M71.2,59.9l13.5-23.3c0.2-0.5,0.4-1.1,0.4-1.7c0-2.1-1.7-3.9-3.8-4H44.7l16.8,29.1H71.2z"/>
				<path class="st1" d="M31.3,70.9l13.5,23.3c0.3,0.5,0.7,0.9,1.3,1.2c0.6,0.4,1.3,0.5,2,0.5c1.3,0,2.6-0.7,3.3-1.8l18.3-31.7H36.2
					L31.3,70.9z"/>
				<path class="st1" d="M29.8,68.4l16.8-29.1l-4.9-8.4h-27c-0.6,0.1-1.2,0.2-1.7,0.5c-1.3,0.8-2,2.1-2,3.5c0,0.6,0.1,1.2,0.4,1.8
					L29.8,68.4z"/>
			</g>
		</g>
	</g>
</g>
</svg>
